<svg xmlns="http://www.w3.org/2000/svg" xmlns:xlink="http://www.w3.org/1999/xlink" xmlns:lucid="lucid" width="1335" height="284"><g transform="translate(-139 -156)" lucid:page-tab-id="0_0"><path d="M380 200h340v220H380z" stroke="#000" stroke-width="3" fill="#c1e4f7"/><use xlink:href="#a" transform="matrix(1,0,0,1,385,205) translate(59.25925925925925 110.33333333333334)"/><use xlink:href="#b" transform="matrix(1,0,0,1,385,205) translate(214.51851851851853 110.33333333333334)"/><path d="M920 220h300v180H920z" stroke="#000" stroke-width="3" fill="#ffeca9"/><use xlink:href="#c" transform="matrix(1,0,0,1,925,225) translate(64.33333333333334 21.333333333333336)"/><use xlink:href="#d" transform="matrix(1,0,0,1,925,225) translate(88.03703703703705 21.333333333333336)"/><path d="M960 300h140v80H960z" stroke="#000" stroke-width="3" fill="#ffbbb1"/><use xlink:href="#e" transform="matrix(1,0,0,1,965,305) translate(23.734567901234563 26.111111111111114)"/><use xlink:href="#f" transform="matrix(1,0,0,1,965,305) translate(43.39506172839506 52.77777777777778)"/><path d="M722.5 340H940" stroke="#000" stroke-width="2" fill="none"/><path d="M722.53 341h-1.03v-2h1.03z"/><path d="M955.26 340L941 344.64v-9.28z" stroke="#000" stroke-width="2"/><use xlink:href="#g" transform="matrix(1,0,0,1,750.8383114297093,343.99999999999994) translate(0.0049999999999954525 17.77777777777778)"/><use xlink:href="#h" transform="matrix(1,0,0,1,750.8383114297093,343.99999999999994) translate(91.23956790123457 17.77777777777778)"/><use xlink:href="#i" transform="matrix(1,0,0,1,750.8383114297093,343.99999999999994) translate(16.609938271604918 44.44444444444444)"/><path d="M1220 165.56h130V220h-130z" stroke="#000" stroke-opacity="0" stroke-width="2" fill="#fff"/><use xlink:href="#j" transform="matrix(1,0,0,1,1225,170.55555555555554) translate(18.216049382716044 18.055555555555557)"/><use xlink:href="#k" transform="matrix(1,0,0,1,1225,170.55555555555554) translate(0.37654320987654444 40.27777777777778)"/><path d="M1284.96 221l-.07 1.8-.3 2.52-.47 2.32-.6 2.15-.76 2.02-.9 1.93-1.03 1.86-1.2 1.8-1.4 1.77-1.63 1.75-1.88 1.74-2.2 1.73-2.65 1.74-3.17 1.76-3.88 1.77-4.8 1.75-6.1 1.7-7.84 1.5-4.12.47" stroke="#0c7cba" stroke-width="2" fill="none"/><path d="M1285.96 221.06l-2-.07.04-1h2z" fill="#0c7cba"/><path d="M1224.73 256.02l13.96-5.5.55 9.26z" stroke="#0c7cba" stroke-width="2" fill="#0c7cba"/><path d="M780 165.56h130V220H780z" stroke="#000" stroke-opacity="0" stroke-width="2" fill="#fff"/><g><use xlink:href="#l" transform="matrix(1,0,0,1,785,170.55555555555554) translate(11.641975308641975 18.055555555555557)"/><use xlink:href="#m" transform="matrix(1,0,0,1,785,170.55555555555554) translate(15.962962962962969 40.27777777777778)"/></g><path d="M845.02 221l.07 3.2.26 4.04.43 3.93.6 3.82.73 3.7.9 3.64 1.05 3.55 1.2 3.47 1.33 3.4 1.5 3.36 1.64 3.3 1.8 3.23 1.96 3.2 2.13 3.14 2.3 3.1 2.48 3.05 2.68 3 2.87 2.95 3.08 2.9 3.3 2.84 3.5 2.77 3.75 2.7 4 2.62 4.23 2.5 4.5 2.4 4.73 2.28 4.98 2.13 5.24 1.96 5.46 1.77 5.68 1.58 5.87 1.36 6.06 1.13 4.75.66" stroke="#0c7cba" stroke-width="2" fill="none"/><path d="M846.02 221l-2 .05L844 220h2z" fill="#0c7cba"/><path d="M955.27 314.68l-14.54 3.7.6-9.25z" stroke="#0c7cba" stroke-width="2" fill="#0c7cba"/><defs><path d="M212-179c-10-28-35-45-73-45-59 0-87 40-87 99 0 60 29 101 89 101 43 0 62-24 78-52l27 14C228-24 195 4 139 4 59 4 22-46 18-125c-6-104 99-153 187-111 19 9 31 26 39 46" id="n"/><path d="M100-194c62-1 85 37 85 99 1 63-27 99-86 99S16-35 15-95c0-66 28-99 85-99zM99-20c44 1 53-31 53-75 0-43-8-75-51-75s-53 32-53 75 10 74 51 75" id="o"/><path d="M210-169c-67 3-38 105-44 169h-31v-121c0-29-5-50-35-48C34-165 62-65 56 0H25l-1-190h30c1 10-1 24 2 32 10-44 99-50 107 0 11-21 27-35 58-36 85-2 47 119 55 194h-31v-121c0-29-5-49-35-48" id="p"/><path d="M115-194c55 1 70 41 70 98S169 2 115 4C84 4 66-9 55-30l1 105H24l-1-265h31l2 30c10-21 28-34 59-34zm-8 174c40 0 45-34 45-75s-6-73-45-74c-42 0-51 32-51 76 0 43 10 73 51 73" id="q"/><path d="M135-143c-3-34-86-38-87 0 15 53 115 12 119 90S17 21 10-45l28-5c4 36 97 45 98 0-10-56-113-15-118-90-4-57 82-63 122-42 12 7 21 19 24 35" id="r"/><path d="M24-231v-30h32v30H24zM24 0v-190h32V0H24" id="s"/><path d="M59-47c-2 24 18 29 38 22v24C64 9 27 4 27-40v-127H5v-23h24l9-43h21v43h35v23H59v120" id="t"/><path d="M117-194c89-4 53 116 60 194h-32v-121c0-31-8-49-39-48C34-167 62-67 57 0H25l-1-190h30c1 10-1 24 2 32 11-22 29-35 61-36" id="u"/><g id="a"><use transform="matrix(0.07407407407407408,0,0,0.07407407407407408,0,0)" xlink:href="#n"/><use transform="matrix(0.07407407407407408,0,0,0.07407407407407408,19.185185185185187,0)" xlink:href="#o"/><use transform="matrix(0.07407407407407408,0,0,0.07407407407407408,34,0)" xlink:href="#p"/><use transform="matrix(0.07407407407407408,0,0,0.07407407407407408,56.14814814814815,0)" xlink:href="#q"/><use transform="matrix(0.07407407407407408,0,0,0.07407407407407408,70.96296296296296,0)" xlink:href="#o"/><use transform="matrix(0.07407407407407408,0,0,0.07407407407407408,85.77777777777777,0)" xlink:href="#r"/><use transform="matrix(0.07407407407407408,0,0,0.07407407407407408,99.11111111111111,0)" xlink:href="#s"/><use transform="matrix(0.07407407407407408,0,0,0.07407407407407408,104.96296296296296,0)" xlink:href="#t"/><use transform="matrix(0.07407407407407408,0,0,0.07407407407407408,112.37037037037037,0)" xlink:href="#s"/><use transform="matrix(0.07407407407407408,0,0,0.07407407407407408,118.22222222222221,0)" xlink:href="#o"/><use transform="matrix(0.07407407407407408,0,0,0.07407407407407408,133.03703703703704,0)" xlink:href="#u"/></g><path d="M233-177c-1 41-23 64-60 70L243 0h-38l-65-103H63V0H30v-248c88 3 205-21 203 71zM63-129c60-2 137 13 137-47 0-61-80-42-137-45v92" id="v"/><g id="b"><use transform="matrix(0.07407407407407408,0,0,0.07407407407407408,0,0)" xlink:href="#v"/><use transform="matrix(0.07407407407407408,0,0,0.07407407407407408,19.185185185185187,0)" xlink:href="#o"/><use transform="matrix(0.07407407407407408,0,0,0.07407407407407408,34,0)" xlink:href="#o"/><use transform="matrix(0.07407407407407408,0,0,0.07407407407407408,48.81481481481481,0)" xlink:href="#t"/></g><path d="M205 0l-28-72H64L36 0H1l101-248h38L239 0h-34zm-38-99l-47-123c-12 45-31 82-46 123h93" id="w"/><use transform="matrix(0.07407407407407408,0,0,0.07407407407407408,0,0)" xlink:href="#w" id="c"/><path d="M100-194c63 0 86 42 84 106H49c0 40 14 67 53 68 26 1 43-12 49-29l28 8c-11 28-37 45-77 45C44 4 14-33 15-96c1-61 26-98 85-98zm52 81c6-60-76-77-97-28-3 7-6 17-6 28h103" id="x"/><g id="d"><use transform="matrix(0.07407407407407408,0,0,0.07407407407407408,0,0)" xlink:href="#n"/><use transform="matrix(0.07407407407407408,0,0,0.07407407407407408,19.185185185185187,0)" xlink:href="#o"/><use transform="matrix(0.07407407407407408,0,0,0.07407407407407408,34,0)" xlink:href="#p"/><use transform="matrix(0.07407407407407408,0,0,0.07407407407407408,56.14814814814815,0)" xlink:href="#q"/><use transform="matrix(0.07407407407407408,0,0,0.07407407407407408,70.96296296296296,0)" xlink:href="#o"/><use transform="matrix(0.07407407407407408,0,0,0.07407407407407408,85.77777777777777,0)" xlink:href="#u"/><use transform="matrix(0.07407407407407408,0,0,0.07407407407407408,100.5925925925926,0)" xlink:href="#x"/><use transform="matrix(0.07407407407407408,0,0,0.07407407407407408,115.40740740740739,0)" xlink:href="#u"/><use transform="matrix(0.07407407407407408,0,0,0.07407407407407408,130.2222222222222,0)" xlink:href="#t"/></g><path d="M84 4C-5 8 30-112 23-190h32v120c0 31 7 50 39 49 72-2 45-101 50-169h31l1 190h-30c-1-10 1-25-2-33-11 22-28 36-60 37" id="y"/><g id="e"><use transform="matrix(0.06172839506172839,0,0,0.06172839506172839,0,0)" xlink:href="#v"/><use transform="matrix(0.06172839506172839,0,0,0.06172839506172839,15.987654320987653,0)" xlink:href="#y"/><use transform="matrix(0.06172839506172839,0,0,0.06172839506172839,28.333333333333332,0)" xlink:href="#u"/><use transform="matrix(0.06172839506172839,0,0,0.06172839506172839,40.67901234567901,0)" xlink:href="#t"/><use transform="matrix(0.06172839506172839,0,0,0.06172839506172839,46.851851851851855,0)" xlink:href="#s"/><use transform="matrix(0.06172839506172839,0,0,0.06172839506172839,51.7283950617284,0)" xlink:href="#p"/><use transform="matrix(0.06172839506172839,0,0,0.06172839506172839,70.18518518518519,0)" xlink:href="#x"/></g><path d="M85-194c31 0 48 13 60 33l-1-100h32l1 261h-30c-2-10 0-23-3-31C134-8 116 4 85 4 32 4 16-35 15-94c0-66 23-100 70-100zm9 24c-40 0-46 34-46 75 0 40 6 74 45 74 42 0 51-32 51-76 0-42-9-74-50-73" id="z"/><path d="M141-36C126-15 110 5 73 4 37 3 15-17 15-53c-1-64 63-63 125-63 3-35-9-54-41-54-24 1-41 7-42 31l-33-3c5-37 33-52 76-52 45 0 72 20 72 64v82c-1 20 7 32 28 27v20c-31 9-61-2-59-35zM48-53c0 20 12 33 32 33 41-3 63-29 60-74-43 2-92-5-92 41" id="A"/><g id="f"><use transform="matrix(0.06172839506172839,0,0,0.06172839506172839,0,0)" xlink:href="#z"/><use transform="matrix(0.06172839506172839,0,0,0.06172839506172839,12.345679012345679,0)" xlink:href="#A"/><use transform="matrix(0.06172839506172839,0,0,0.06172839506172839,24.691358024691358,0)" xlink:href="#t"/><use transform="matrix(0.06172839506172839,0,0,0.06172839506172839,30.864197530864196,0)" xlink:href="#A"/></g><path d="M185-189c-5-48-123-54-124 2 14 75 158 14 163 119 3 78-121 87-175 55-17-10-28-26-33-46l33-7c5 56 141 63 141-1 0-78-155-14-162-118-5-82 145-84 179-34 5 7 8 16 11 25" id="B"/><path d="M24 0v-261h32V0H24" id="C"/><g id="g"><use transform="matrix(0.06172839506172839,0,0,0.06172839506172839,0,0)" xlink:href="#B"/><use transform="matrix(0.06172839506172839,0,0,0.06172839506172839,14.814814814814813,0)" xlink:href="#y"/><use transform="matrix(0.06172839506172839,0,0,0.06172839506172839,27.160493827160494,0)" xlink:href="#q"/><use transform="matrix(0.06172839506172839,0,0,0.06172839506172839,39.50617283950617,0)" xlink:href="#q"/><use transform="matrix(0.06172839506172839,0,0,0.06172839506172839,51.85185185185185,0)" xlink:href="#C"/><use transform="matrix(0.06172839506172839,0,0,0.06172839506172839,56.72839506172839,0)" xlink:href="#s"/><use transform="matrix(0.06172839506172839,0,0,0.06172839506172839,61.60493827160494,0)" xlink:href="#x"/><use transform="matrix(0.06172839506172839,0,0,0.06172839506172839,73.95061728395062,0)" xlink:href="#r"/></g><path d="M114-163C36-179 61-72 57 0H25l-1-190h30c1 12-1 29 2 39 6-27 23-49 58-41v29" id="D"/><path d="M177-190C167-65 218 103 67 71c-23-6-38-20-44-43l32-5c15 47 100 32 89-28v-30C133-14 115 1 83 1 29 1 15-40 15-95c0-56 16-97 71-98 29-1 48 16 59 35 1-10 0-23 2-32h30zM94-22c36 0 50-32 50-73 0-42-14-75-50-75-39 0-46 34-46 75s6 73 46 73" id="E"/><g id="h"><use transform="matrix(0.06172839506172839,0,0,0.06172839506172839,0,0)" xlink:href="#z"/><use transform="matrix(0.06172839506172839,0,0,0.06172839506172839,12.345679012345679,0)" xlink:href="#y"/><use transform="matrix(0.06172839506172839,0,0,0.06172839506172839,24.691358024691358,0)" xlink:href="#D"/><use transform="matrix(0.06172839506172839,0,0,0.06172839506172839,32.03703703703704,0)" xlink:href="#s"/><use transform="matrix(0.06172839506172839,0,0,0.06172839506172839,36.91358024691358,0)" xlink:href="#u"/><use transform="matrix(0.06172839506172839,0,0,0.06172839506172839,49.25925925925926,0)" xlink:href="#E"/></g><path d="M96-169c-40 0-48 33-48 73s9 75 48 75c24 0 41-14 43-38l32 2c-6 37-31 61-74 61-59 0-76-41-82-99-10-93 101-131 147-64 4 7 5 14 7 22l-32 3c-4-21-16-35-41-35" id="F"/><g id="i"><use transform="matrix(0.06172839506172839,0,0,0.06172839506172839,0,0)" xlink:href="#F"/><use transform="matrix(0.06172839506172839,0,0,0.06172839506172839,11.11111111111111,0)" xlink:href="#o"/><use transform="matrix(0.06172839506172839,0,0,0.06172839506172839,23.45679012345679,0)" xlink:href="#u"/><use transform="matrix(0.06172839506172839,0,0,0.06172839506172839,35.80246913580247,0)" xlink:href="#r"/><use transform="matrix(0.06172839506172839,0,0,0.06172839506172839,46.91358024691358,0)" xlink:href="#t"/><use transform="matrix(0.06172839506172839,0,0,0.06172839506172839,53.086419753086425,0)" xlink:href="#D"/><use transform="matrix(0.06172839506172839,0,0,0.06172839506172839,60.4320987654321,0)" xlink:href="#y"/><use transform="matrix(0.06172839506172839,0,0,0.06172839506172839,72.77777777777779,0)" xlink:href="#F"/><use transform="matrix(0.06172839506172839,0,0,0.06172839506172839,83.8888888888889,0)" xlink:href="#t"/><use transform="matrix(0.06172839506172839,0,0,0.06172839506172839,90.06172839506173,0)" xlink:href="#s"/><use transform="matrix(0.06172839506172839,0,0,0.06172839506172839,94.93827160493828,0)" xlink:href="#o"/><use transform="matrix(0.06172839506172839,0,0,0.06172839506172839,107.28395061728396,0)" xlink:href="#u"/></g><path fill="#0c7cba" d="M149-267c13-16 44-1 26 18-29 31-73 58-101 91-63 73 126 93 64 188-18 18-38 39-66 44-33-35 57-37 51-81-7-51-90-65-93-120 9-58 80-95 115-130 1-4 2-7 4-10" id="G"/><path fill="#0c7cba" d="M80-111c25 5 65-7 65 16 0 24-41 8-65 11 0 30 10 65 7 89-27 17-28-21-32-44-2-14-2-30-2-45-17 0-40 4-40-12 0-17 22-14 40-15-2-43 13-89 12-123 5-14 19-40 34-19 2 3 2 5 2 9-13 36-19 86-21 133" id="H"/><path fill="#0c7cba" d="M130-62c56-26 4 72 72 38 14-6 41-21 41 5-19 29-109 50-109-7 0-2-1-3-3-3-30 9-43 47-77 51-74-40 26-131 76-148 25-8 64 18 35 33-53-19-93 31-111 75-1 11 7 11 14 5" id="I"/><path fill="#0c7cba" d="M58-62c25-6 60-22 51-52-27-1-41 30-51 52zm7-58c24-30 91-27 71 27-13 33-45 54-84 60 11 53 94-3 128-2 8 4 10 22-2 24C135 10 14 45 25-43c5-33 24-56 40-77" id="J"/><path fill="#0c7cba" d="M144-254c26-3 46 30 29 50-25 17-17-38-47-17-30 20-44 57-50 101 24 0 54-12 73-4 15 26-22 25-43 28-18 2-19 1-34 3-2 56-8 133 17 167 7 9-3 20-11 20C27 76 46-22 44-90c-15 1-34 4-34-11 0-17 21-14 37-16 10-67 29-129 97-137" id="K"/><path fill="#0c7cba" d="M169-95c50-11-25 95 59 70 14-8 38-18 36 7-19 31-108 39-104-15C141 9 39 51 35-33c-1-31 0-85 33-71C78-83 35-9 90-11c35-13 59-46 72-78 1-3 4-5 7-6" id="L"/><path fill="#0c7cba" d="M67-53c27-27 48-65 46-120-1-26-10-27-23-8-19 29-37 83-23 128zm12 26c32 24 81-10 115-10 19 17-8 29-27 34s-41 13-63 13C-9 10 35-189 92-223c37-22 51 21 48 65-5 59-29 100-61 131" id="M"/><g id="j"><use transform="matrix(0.06172839506172839,0,0,0.06172839506172839,0,0)" xlink:href="#G"/><use transform="matrix(0.06172839506172839,0,0,0.06172839506172839,10.185185185185185,0)" xlink:href="#H"/><use transform="matrix(0.06172839506172839,0,0,0.06172839506172839,18.580246913580247,0)" xlink:href="#I"/><use transform="matrix(0.06172839506172839,0,0,0.06172839506172839,32.22222222222222,0)" xlink:href="#H"/><use transform="matrix(0.06172839506172839,0,0,0.06172839506172839,40.617283950617285,0)" xlink:href="#J"/><use transform="matrix(0.06172839506172839,0,0,0.06172839506172839,51.17283950617284,0)" xlink:href="#K"/><use transform="matrix(0.06172839506172839,0,0,0.06172839506172839,60.061728395061735,0)" xlink:href="#L"/><use transform="matrix(0.06172839506172839,0,0,0.06172839506172839,75.12345679012347,0)" xlink:href="#M"/></g><path fill="#0c7cba" d="M58-31c27 44 114-3 149-13 10 1 15 19 3 25-31 15-74 31-122 32-34 0-59-9-61-39 13-47 45-88 103-88 9 0 16 6 16 14 0 14-19 20-33 14-25 9-49 27-55 55" id="N"/><path fill="#0c7cba" d="M148-33c26-44-51-21-53-44-24-2-44 42-33 68 27 22 73-3 86-24zm4-58c19 1 44-5 44 14 0 12-10 11-22 12 3 5 6 12 7 19-11 47-47 67-100 72C9 32 27-71 65-94c12-8 35-22 49-7 16-3 30 2 38 10" id="O"/><path fill="#0c7cba" d="M311-24c26-2 52-23 78-11 10 9-3 29-17 23-28 4-73 30-93 1-13-12-17-32-23-52-4-17-13-8-26 1-19 13-34 33-50 50-41 17-22-83-59-44-18 19-37 41-50 64-7 14-30 6-30-9v-98c0-9 7-13 14-13 27 0 8 47 13 78 24-23 39-72 83-62 15 3 17 35 26 46 21-16 50-55 79-55 39 0 20 74 55 81" id="P"/><path fill="#0c7cba" d="M24-104c-15-4-11-29 7-27 59 4 114 17 144 47 27 55-44 74-90 89-9 1-16-6-16-14 9-32 72-17 83-53-11-27-52-29-81-38L60 52c-7 33 23 75-16 78-30-46 0-161-1-233-7 0-13 1-19-1" id="Q"/><path fill="#0c7cba" d="M35-78c-1-16 25-29 32-10v56c26-26 48-59 93-65 49-6 10 89 65 74 17-4 41-23 62-16 10 9 4 30-13 26-29 10-85 40-102-4-12-15-4-67-33-45-26 19-55 38-70 68-7 13-28 10-28-6l-1-72c-4-1-5-3-5-6" id="R"/><g id="k"><use transform="matrix(0.06172839506172839,0,0,0.06172839506172839,0,0)" xlink:href="#N"/><use transform="matrix(0.06172839506172839,0,0,0.06172839506172839,12.839506172839506,0)" xlink:href="#O"/><use transform="matrix(0.06172839506172839,0,0,0.06172839506172839,25.493827160493826,0)" xlink:href="#P"/><use transform="matrix(0.06172839506172839,0,0,0.06172839506172839,46.91358024691358,0)" xlink:href="#Q"/><use transform="matrix(0.06172839506172839,0,0,0.06172839506172839,58.39506172839506,0)" xlink:href="#O"/><use transform="matrix(0.06172839506172839,0,0,0.06172839506172839,71.04938271604938,0)" xlink:href="#R"/><use transform="matrix(0.06172839506172839,0,0,0.06172839506172839,86.17283950617283,0)" xlink:href="#J"/><use transform="matrix(0.06172839506172839,0,0,0.06172839506172839,96.72839506172839,0)" xlink:href="#R"/><use transform="matrix(0.06172839506172839,0,0,0.06172839506172839,111.85185185185185,0)" xlink:href="#H"/></g><path fill="#0c7cba" d="M66-33C66 24 166 7 211-5c13-4 21 9 16 21C162 47 20 47 38-48c17-89 74-144 147-177 19 5 10 37-10 35-52 34-109 76-109 157" id="S"/><path fill="#0c7cba" d="M154-99c23-3 36 19 18 31-7 2-14-6-23-4-36 11-78 21-85 61 0 9-7 13-14 13-24 0-11-53-11-81-7-5 3-33 20-27 18 6 3 28 5 47 22-20 53-35 90-40" id="T"/><path fill="#0c7cba" d="M26-31c7-55 103-103 146-54l-15-147c-4-13 10-22 21-15 19 48 24 129 24 193 0 35-33 16-39-2-10-10-21-24-40-24-29 7-59 19-66 47 12 36 84 19 117 15 21 24-15 30-33 32-51 6-111 0-115-45" id="U"/><g id="l"><use transform="matrix(0.06172839506172839,0,0,0.06172839506172839,0,0)" xlink:href="#S"/><use transform="matrix(0.06172839506172839,0,0,0.06172839506172839,14.320987654320987,0)" xlink:href="#I"/><use transform="matrix(0.06172839506172839,0,0,0.06172839506172839,27.962962962962962,0)" xlink:href="#Q"/><use transform="matrix(0.06172839506172839,0,0,0.06172839506172839,39.44444444444444,0)" xlink:href="#H"/><use transform="matrix(0.06172839506172839,0,0,0.06172839506172839,47.839506172839506,0)" xlink:href="#L"/><use transform="matrix(0.06172839506172839,0,0,0.06172839506172839,62.901234567901234,0)" xlink:href="#T"/><use transform="matrix(0.06172839506172839,0,0,0.06172839506172839,73.45679012345678,0)" xlink:href="#J"/><use transform="matrix(0.06172839506172839,0,0,0.06172839506172839,84.01234567901234,0)" xlink:href="#U"/></g><path fill="#0c7cba" d="M83-13c11-20 34-47 27-74-3-10 13-20 24-15 4 14 35 1 36 21 1 15-16 18-32 14C124-29 88 64 50 1 34-26 25-69 25-105c1-17 28-20 28 0 0 35 5 76 26 94 1 0 3-1 4-2" id="V"/><path fill="#0c7cba" d="M72-15c36 10 81-45 104-9-10 25-56 25-84 36-58 23-64-48-48-93-8-15 20-38 33-20 0 21-27 62-5 86zm21-174c12 0 21 8 21 21 0 12-9 21-23 21-11 0-20-10-20-22 0-10 10-21 22-20" id="W"/><path fill="#0c7cba" d="M55-217c19-19 31 6 21 21-5 37-13 73-14 114 20-21 58-35 98-32 46 19 6 83-13 101-20 20-40 39-70 47-10-1-13-19-4-25 36-21 66-42 80-84 3-9-6-14-18-12-34 8-75 16-71 63 1 8-6 13-12 14-39-31-9-155 3-207" id="X"/><g id="m"><use transform="matrix(0.06172839506172839,0,0,0.06172839506172839,0,0)" xlink:href="#V"/><use transform="matrix(0.06172839506172839,0,0,0.06172839506172839,10.37037037037037,0)" xlink:href="#I"/><use transform="matrix(0.06172839506172839,0,0,0.06172839506172839,24.012345679012345,0)" xlink:href="#T"/><use transform="matrix(0.06172839506172839,0,0,0.06172839506172839,34.5679012345679,0)" xlink:href="#W"/><use transform="matrix(0.06172839506172839,0,0,0.06172839506172839,43.456790123456784,0)" xlink:href="#I"/><use transform="matrix(0.06172839506172839,0,0,0.06172839506172839,57.09876543209876,0)" xlink:href="#X"/><use transform="matrix(0.06172839506172839,0,0,0.06172839506172839,69.07407407407406,0)" xlink:href="#M"/><use transform="matrix(0.06172839506172839,0,0,0.06172839506172839,78.5185185185185,0)" xlink:href="#J"/></g></defs></g></svg>