<svg xmlns="http://www.w3.org/2000/svg" xmlns:xlink="http://www.w3.org/1999/xlink" xmlns:lucid="lucid" width="1102" height="489"><g transform="translate(-563 -249)" lucid:page-tab-id="0_0"><path d="M826.52 265.86h225v70h-225z" stroke="#000" stroke-width="4" fill="#fff5d3"/><use xlink:href="#a" transform="matrix(1,0,0,1,834.5166666666665,273.86111111111114) translate(16.382716049382708 31.444444444444443)"/><use xlink:href="#b" transform="matrix(1,0,0,1,834.5166666666665,273.86111111111114) translate(145.76543209876544 31.444444444444443)"/><path d="M1177.92 400h225v44h-225z" stroke="#000" stroke-width="4" fill="#fff5d3"/><use xlink:href="#c" transform="matrix(1,0,0,1,1185.9166666666665,408) translate(37.27777777777777 18.444444444444443)"/><use xlink:href="#d" transform="matrix(1,0,0,1,1185.9166666666665,408) translate(57.03086419753086 18.444444444444443)"/><path d="M939.02 339.86v189.07h.98V718" fill="none"/><path d="M939.02 339.86v7.9m0 15.8v15.8m0 15.8v15.8m0 15.78v15.8m0 15.8v15.8m0 15.8v15.8m0 15.78v7.4h.98v7.42m0 15.8v15.8m0 15.8v15.78m0 15.8v15.8m0 15.8v15.8m0 15.8v15.78m0 15.8v7.9" stroke="#999" stroke-width="4" fill="none"/><path d="M941.02 339.9h-4v-2.04h4z" fill="#999"/><path d="M940 717.95V720" stroke="#999" stroke-width="4" fill="none"/><path d="M1290.42 448v270" fill="none"/><path d="M1290.42 448v8.44m0 16.87v16.9m0 16.86v16.88m0 16.87v16.9m0 16.86v16.88m0 16.87v16.9m0 16.86v16.88m0 16.87v16.9m0 16.86V718" stroke="#999" stroke-width="4" fill="none"/><path d="M1292.42 448.05h-4V446h4z" fill="#999"/><path d="M1290.42 717.95V720" stroke="#999" stroke-width="4" fill="none"/><path d="M919.02 405.86h40V700h-40zM1270.42 540h40v140h-40z" stroke="#000" stroke-width="4" fill="#fff5d3"/><path d="M963.02 422h209.26" stroke="#000" stroke-width="4" fill="none"/><path d="M963.07 424h-2.05v-4h2.05z"/><path d="M1154.77 432.18L1172 422l-17.23-10.18" stroke="#000" stroke-width="4" fill="none"/><use xlink:href="#e" transform="matrix(1,0,0,1,1005.6148148148146,386) translate(0 21.333333333333336)"/><use xlink:href="#f" transform="matrix(1,0,0,1,1005.6148148148146,386) translate(56.22222222222223 21.333333333333336)"/><path d="M1266.42 674.9H964.95" fill="none"/><path d="M1266.42 674.9h-8.38m-16.75 0h-16.75m-16.75 0h-16.75m-16.75 0h-16.75m-16.75 0h-16.74m-16.75 0h-16.74m-16.75 0h-16.74m-16.75 0h-16.74m-16.74 0h-16.75m-16.75 0h-8.37" stroke="#000" stroke-width="4" fill="none"/><path d="M1268.42 676.9h-2.05v-4h2.05z"/><path d="M983.02 664.2l-18.07 10.7 18.07 10.68M963.02 538h301.76" stroke="#000" stroke-width="4" fill="none"/><path d="M963.07 540h-2.05v-4h2.05z"/><path d="M1247.27 548.18L1264.5 538l-17.23-10.18" stroke="#000" stroke-width="4" fill="none"/><use xlink:href="#g" transform="matrix(1,0,0,1,1026.7166666666665,502) translate(0 21.333333333333336)"/><path d="M1314.42 569.9h38v39.97h-17.27" stroke="#000" stroke-width="4" fill="none"/><path d="M1314.47 571.9h-2.05v-4h2.05z"/><path d="M1318.9 609.87l14.25-4.64v9.28z" stroke="#000" stroke-width="4"/><g><use xlink:href="#h" transform="matrix(1,0,0,1,1360.4166666666665,573.8792355932446) translate(0 21.333333333333336)"/><use xlink:href="#i" transform="matrix(1,0,0,1,1360.4166666666665,573.8792355932446) translate(54.74074074074075 21.333333333333336)"/></g><defs><path d="M212-179c-10-28-35-45-73-45-59 0-87 40-87 99 0 60 29 101 89 101 43 0 62-24 78-52l27 14C228-24 195 4 139 4 59 4 22-46 18-125c-6-104 99-153 187-111 19 9 31 26 39 46" id="j"/><path d="M100-194c62-1 85 37 85 99 1 63-27 99-86 99S16-35 15-95c0-66 28-99 85-99zM99-20c44 1 53-31 53-75 0-43-8-75-51-75s-53 32-53 75 10 74 51 75" id="k"/><path d="M210-169c-67 3-38 105-44 169h-31v-121c0-29-5-50-35-48C34-165 62-65 56 0H25l-1-190h30c1 10-1 24 2 32 10-44 99-50 107 0 11-21 27-35 58-36 85-2 47 119 55 194h-31v-121c0-29-5-49-35-48" id="l"/><path d="M115-194c55 1 70 41 70 98S169 2 115 4C84 4 66-9 55-30l1 105H24l-1-265h31l2 30c10-21 28-34 59-34zm-8 174c40 0 45-34 45-75s-6-73-45-74c-42 0-51 32-51 76 0 43 10 73 51 73" id="m"/><path d="M135-143c-3-34-86-38-87 0 15 53 115 12 119 90S17 21 10-45l28-5c4 36 97 45 98 0-10-56-113-15-118-90-4-57 82-63 122-42 12 7 21 19 24 35" id="n"/><path d="M24-231v-30h32v30H24zM24 0v-190h32V0H24" id="o"/><path d="M59-47c-2 24 18 29 38 22v24C64 9 27 4 27-40v-127H5v-23h24l9-43h21v43h35v23H59v120" id="p"/><path d="M117-194c89-4 53 116 60 194h-32v-121c0-31-8-49-39-48C34-167 62-67 57 0H25l-1-190h30c1 10-1 24 2 32 11-22 29-35 61-36" id="q"/><g id="a"><use transform="matrix(0.06172839506172839,0,0,0.06172839506172839,0,0)" xlink:href="#j"/><use transform="matrix(0.06172839506172839,0,0,0.06172839506172839,15.987654320987653,0)" xlink:href="#k"/><use transform="matrix(0.06172839506172839,0,0,0.06172839506172839,28.333333333333332,0)" xlink:href="#l"/><use transform="matrix(0.06172839506172839,0,0,0.06172839506172839,46.79012345679012,0)" xlink:href="#m"/><use transform="matrix(0.06172839506172839,0,0,0.06172839506172839,59.1358024691358,0)" xlink:href="#k"/><use transform="matrix(0.06172839506172839,0,0,0.06172839506172839,71.48148148148148,0)" xlink:href="#n"/><use transform="matrix(0.06172839506172839,0,0,0.06172839506172839,82.5925925925926,0)" xlink:href="#o"/><use transform="matrix(0.06172839506172839,0,0,0.06172839506172839,87.46913580246914,0)" xlink:href="#p"/><use transform="matrix(0.06172839506172839,0,0,0.06172839506172839,93.64197530864197,0)" xlink:href="#o"/><use transform="matrix(0.06172839506172839,0,0,0.06172839506172839,98.51851851851852,0)" xlink:href="#k"/><use transform="matrix(0.06172839506172839,0,0,0.06172839506172839,110.8641975308642,0)" xlink:href="#q"/></g><path d="M233-177c-1 41-23 64-60 70L243 0h-38l-65-103H63V0H30v-248c88 3 205-21 203 71zM63-129c60-2 137 13 137-47 0-61-80-42-137-45v92" id="r"/><g id="b"><use transform="matrix(0.06172839506172839,0,0,0.06172839506172839,0,0)" xlink:href="#r"/><use transform="matrix(0.06172839506172839,0,0,0.06172839506172839,15.987654320987653,0)" xlink:href="#k"/><use transform="matrix(0.06172839506172839,0,0,0.06172839506172839,28.333333333333332,0)" xlink:href="#k"/><use transform="matrix(0.06172839506172839,0,0,0.06172839506172839,40.67901234567901,0)" xlink:href="#p"/></g><path d="M205 0l-28-72H64L36 0H1l101-248h38L239 0h-34zm-38-99l-47-123c-12 45-31 82-46 123h93" id="s"/><use transform="matrix(0.06172839506172839,0,0,0.06172839506172839,0,0)" xlink:href="#s" id="c"/><path d="M100-194c63 0 86 42 84 106H49c0 40 14 67 53 68 26 1 43-12 49-29l28 8c-11 28-37 45-77 45C44 4 14-33 15-96c1-61 26-98 85-98zm52 81c6-60-76-77-97-28-3 7-6 17-6 28h103" id="t"/><g id="d"><use transform="matrix(0.06172839506172839,0,0,0.06172839506172839,0,0)" xlink:href="#j"/><use transform="matrix(0.06172839506172839,0,0,0.06172839506172839,15.987654320987653,0)" xlink:href="#k"/><use transform="matrix(0.06172839506172839,0,0,0.06172839506172839,28.333333333333332,0)" xlink:href="#l"/><use transform="matrix(0.06172839506172839,0,0,0.06172839506172839,46.79012345679012,0)" xlink:href="#m"/><use transform="matrix(0.06172839506172839,0,0,0.06172839506172839,59.1358024691358,0)" xlink:href="#k"/><use transform="matrix(0.06172839506172839,0,0,0.06172839506172839,71.48148148148148,0)" xlink:href="#q"/><use transform="matrix(0.06172839506172839,0,0,0.06172839506172839,83.82716049382717,0)" xlink:href="#t"/><use transform="matrix(0.06172839506172839,0,0,0.06172839506172839,96.17283950617285,0)" xlink:href="#q"/><use transform="matrix(0.06172839506172839,0,0,0.06172839506172839,108.51851851851853,0)" xlink:href="#p"/></g><path d="M206 0h-36l-40-164L89 0H53L-1-190h32L70-26l43-164h34l41 164 42-164h31" id="u"/><g id="e"><use transform="matrix(0.07407407407407408,0,0,0.07407407407407408,0,0)" xlink:href="#q"/><use transform="matrix(0.07407407407407408,0,0,0.07407407407407408,14.814814814814817,0)" xlink:href="#t"/><use transform="matrix(0.07407407407407408,0,0,0.07407407407407408,29.629629629629633,0)" xlink:href="#u"/></g><path d="M87 75C49 33 22-17 22-94c0-76 28-126 65-167h31c-38 41-64 92-64 168S80 34 118 75H87" id="v"/><path d="M85-194c31 0 48 13 60 33l-1-100h32l1 261h-30c-2-10 0-23-3-31C134-8 116 4 85 4 32 4 16-35 15-94c0-66 23-100 70-100zm9 24c-40 0-46 34-46 75 0 40 6 74 45 74 42 0 51-32 51-76 0-42-9-74-50-73" id="w"/><path d="M141-36C126-15 110 5 73 4 37 3 15-17 15-53c-1-64 63-63 125-63 3-35-9-54-41-54-24 1-41 7-42 31l-33-3c5-37 33-52 76-52 45 0 72 20 72 64v82c-1 20 7 32 28 27v20c-31 9-61-2-59-35zM48-53c0 20 12 33 32 33 41-3 63-29 60-74-43 2-92-5-92 41" id="x"/><path d="M33-261c38 41 65 92 65 168S71 34 33 75H2C39 34 66-17 66-93S39-220 2-261h31" id="y"/><g id="f"><use transform="matrix(0.07407407407407408,0,0,0.07407407407407408,0,0)" xlink:href="#v"/><use transform="matrix(0.07407407407407408,0,0,0.07407407407407408,8.814814814814817,0)" xlink:href="#w"/><use transform="matrix(0.07407407407407408,0,0,0.07407407407407408,23.629629629629633,0)" xlink:href="#x"/><use transform="matrix(0.07407407407407408,0,0,0.07407407407407408,38.44444444444445,0)" xlink:href="#p"/><use transform="matrix(0.07407407407407408,0,0,0.07407407407407408,45.851851851851855,0)" xlink:href="#x"/><use transform="matrix(0.07407407407407408,0,0,0.07407407407407408,60.66666666666667,0)" xlink:href="#y"/></g><path d="M185-189c-5-48-123-54-124 2 14 75 158 14 163 119 3 78-121 87-175 55-17-10-28-26-33-46l33-7c5 56 141 63 141-1 0-78-155-14-162-118-5-82 145-84 179-34 5 7 8 16 11 25" id="z"/><path d="M240 0l2-218c-23 76-54 145-80 218h-23L58-218 59 0H30v-248h44l77 211c21-75 51-140 76-211h43V0h-30" id="A"/><path d="M106-169C34-169 62-67 57 0H25v-261h32l-1 103c12-21 28-36 61-36 89 0 53 116 60 194h-32v-121c2-32-8-49-39-48" id="B"/><g id="g"><use transform="matrix(0.07407407407407408,0,0,0.07407407407407408,0,0)" xlink:href="#z"/><use transform="matrix(0.07407407407407408,0,0,0.07407407407407408,17.77777777777778,0)" xlink:href="#k"/><use transform="matrix(0.07407407407407408,0,0,0.07407407407407408,32.592592592592595,0)" xlink:href="#l"/><use transform="matrix(0.07407407407407408,0,0,0.07407407407407408,54.74074074074075,0)" xlink:href="#t"/><use transform="matrix(0.07407407407407408,0,0,0.07407407407407408,69.55555555555557,0)" xlink:href="#A"/><use transform="matrix(0.07407407407407408,0,0,0.07407407407407408,91.70370370370371,0)" xlink:href="#t"/><use transform="matrix(0.07407407407407408,0,0,0.07407407407407408,106.51851851851853,0)" xlink:href="#p"/><use transform="matrix(0.07407407407407408,0,0,0.07407407407407408,113.92592592592594,0)" xlink:href="#B"/><use transform="matrix(0.07407407407407408,0,0,0.07407407407407408,128.74074074074076,0)" xlink:href="#k"/><use transform="matrix(0.07407407407407408,0,0,0.07407407407407408,143.55555555555557,0)" xlink:href="#w"/><use transform="matrix(0.07407407407407408,0,0,0.07407407407407408,158.37037037037038,0)" xlink:href="#v"/><use transform="matrix(0.07407407407407408,0,0,0.07407407407407408,167.18518518518522,0)" xlink:href="#y"/></g><path d="M232-93c-1 65-40 97-104 97C67 4 28-28 28-90v-158h33c8 89-33 224 67 224 102 0 64-133 71-224h33v155" id="C"/><g id="h"><use transform="matrix(0.07407407407407408,0,0,0.07407407407407408,0,0)" xlink:href="#C"/><use transform="matrix(0.07407407407407408,0,0,0.07407407407407408,19.185185185185187,0)" xlink:href="#n"/><use transform="matrix(0.07407407407407408,0,0,0.07407407407407408,32.51851851851852,0)" xlink:href="#t"/></g><g id="i"><use transform="matrix(0.07407407407407408,0,0,0.07407407407407408,0,0)" xlink:href="#w"/><use transform="matrix(0.07407407407407408,0,0,0.07407407407407408,14.814814814814817,0)" xlink:href="#x"/><use transform="matrix(0.07407407407407408,0,0,0.07407407407407408,29.629629629629633,0)" xlink:href="#p"/><use transform="matrix(0.07407407407407408,0,0,0.07407407407407408,37.03703703703704,0)" xlink:href="#x"/></g></defs></g></svg>