<svg xmlns="http://www.w3.org/2000/svg" xmlns:xlink="http://www.w3.org/1999/xlink" xmlns:lucid="lucid" width="909" height="271"><g transform="translate(-128 -189)" lucid:page-tab-id="0_0"><path d="M205 295c0 8.28-6.72 15-15 15-8.28 0-15-6.72-15-15 0-8.28 6.72-15 15-15 8.28 0 15 6.72 15 15z" stroke="#000" stroke-width="3" fill="#c1e4f7"/><path d="M160 280h60v138h-60z" fill="none"/><path d="M190 310v52.8l30 55.2m-30-55.2L160 418m0-93h60" stroke="#000" stroke-width="3" fill="none"/><use xlink:href="#a" transform="matrix(1,0,0,1,80,418.00000000000006) translate(91.05 14.6)"/><path d="M400 260h77.42v180H400z" stroke="#000" stroke-width="3" fill="#ffeca9"/><use xlink:href="#b" transform="matrix(1,0,0,1,405,265) translate(25.025 88.60000000000001)"/><path d="M657.42 260h77.42v180h-77.42z" stroke="#000" stroke-width="3" fill="#ffeca9"/><use xlink:href="#c" transform="matrix(1,0,0,1,662.4193548387098,265.00000000000006) translate(23 88.60000000000001)"/><path d="M914.84 260h77.42v180h-77.42z" stroke="#000" stroke-width="3" fill="#ffeca9"/><use xlink:href="#d" transform="matrix(1,0,0,1,919.8387096774195,265) translate(16.525 88.60000000000001)"/><path d="M369 350c0 13.8-11.2 25-25 25s-25-11.2-25-25 11.2-25 25-25 25 11.2 25 25z" stroke="#000" stroke-width="3" fill="#fff"/><path d="M371.5 350h26" stroke="#000" stroke-width="2" fill="none"/><path d="M371.53 351h-1.12l.1-1-.08-1h1.1zM398.5 351h-1.03v-2h1.03z"/><path d="M628.92 350h27.5" stroke="#000" stroke-width="2" fill="none"/><path d="M628.95 351h-1.12l.1-1-.1-1h1.12z"/><path d="M656.4 350h1.02" stroke="#000" stroke-width="2" fill="none"/><path d="M626.42 350c0 13.8-11.2 25-25 25s-25-11.2-25-25 11.2-25 25-25 25 11.2 25 25z" stroke="#000" stroke-width="3" fill="#fff"/><path d="M892.5 350h21.34" stroke="#000" stroke-width="2" fill="none"/><path d="M892.53 351h-1.12l.1-1-.08-1h1.1z"/><path d="M913.8 350h1.04" stroke="#000" stroke-width="2" fill="none"/><path d="M890 350c0 13.8-11.2 25-25 25s-25-11.2-25-25 11.2-25 25-25 25 11.2 25 25z" stroke="#000" stroke-width="3" fill="#fff"/><path d="M493.72 351h-13.8v-2h13.8zm47.78 0h-9.38v-2h9.38z"/><path d="M479.94 351h-1.02v-2h1.02zM556.76 350l-14.26 4.64v-9.28z"/><path d="M560 350l-18.5 6v-12zm-16.5 3.26l10.03-3.26-10.03-3.26z"/><use xlink:href="#e" transform="matrix(1,0,0,1,493.7211194885793,339.2) translate(0 14.4)"/><path d="M747.86 351h-10.52v-2h10.52zm53.64 0h-11.84v-2h11.84z"/><path d="M737.36 351h-1.02v-2h1.02zM816.76 350l-14.26 4.64v-9.28z"/><path d="M820 350l-18.5 6v-12zm-16.5 3.26l10.03-3.26-10.03-3.26z"/><use xlink:href="#f" transform="matrix(1,0,0,1,747.8598811951715,339.20000000000005) translate(0 14.4)"/><path d="M226.48 351.4h-24.44v-2h24.44zm55.02 0h-20.02v-2h20.02z"/><path d="M202.07 351.4h-1.03v-2h1.03zM296.76 350.4L282.5 355v-9.27z"/><path d="M300 350.4l-18.5 6v-12.02zm-16.5 3.25l10.03-3.26-10.03-3.27z"/><use xlink:href="#g" transform="matrix(1,0,0,1,226.47800976860572,339.5868501039048) translate(0 14.4)"/><path d="M669.03 221.73l6.64 2.9 7.54 2.95 8.77 3 10.57 3.13 13.7 3.45 22.43 4.6L794 252.1l10.64 2.67 7.7 2.28 6.07 2.08 5 1.95 4.27 1.87 3.68 1.8 3.24 1.76 2.88 1.74 2.6 1.7 2.36 1.7 2.15 1.7 1.97 1.7 1.83 1.7 1.7 1.7 1.57 1.74 1.48 1.76 1.37 1.8 1.3 1.84 1.2 1.9 1.15 1.95 1.07 2.02 1 2.1.93 2.2.87 2.3.8 2.42.73 2.57.45 1.86-1.95.47-.43-1.83-.7-2.48-.78-2.35-.84-2.2-.9-2.13-.97-2.02-1.03-1.95-1.1-1.88-1.16-1.82-1.25-1.78-1.32-1.73-1.42-1.7-1.52-1.68-1.63-1.66-1.76-1.64-1.9-1.64-2.1-1.63-2.3-1.65-2.52-1.66-2.82-1.7-3.17-1.7-3.6-1.78-4.18-1.83-4.93-1.93-6-2.04-7.6-2.26-10.54-2.63-55.3-10.36-22.48-4.6-13.8-3.46-10.64-3.15-8.84-3.04-7.62-2.97-6.7-2.96-5.12-2.5.88-1.8z" fill="#0c7cba"/><path d="M664 219.26l-.9 1.8-.9-.46.87-1.8zM864.66 320.28l-6.12-13.7 9.22-.98z" fill="#0c7cba"/><path d="M865 323.5l-7.94-17.77 11.96-1.27zm-5-16.07l4.3 9.63 2.2-10.32z" fill="#0c7cba"/><path d="M536.42 200h130v40h-130z" stroke="#000" stroke-opacity="0" stroke-width="2" fill="#fff"/><use xlink:href="#h" transform="matrix(1,0,0,1,541.419354838689,205) translate(1.9197530864197603 21.666666666666668)"/><use xlink:href="#i" transform="matrix(1,0,0,1,541.419354838689,205) translate(80.31481481481481 21.666666666666668)"/><path d="M601.42 241v64" stroke="#0c7cba" stroke-width="2" fill="none"/><path d="M602.42 241.03h-2V240h2z" fill="#0c7cba"/><path d="M601.42 320.26L596.78 306h9.27z" stroke="#0c7cba" stroke-width="2" fill="#0c7cba"/><path d="M535.44 221.02l-25.53.5-21.35 1.34-17.6 1.84-14.75 2.17-12.48 2.37-10.7 2.5-9.23 2.58-8.07 2.62-7.1 2.63-6.25 2.63-5.58 2.62-5 2.62-4.5 2.6-4.07 2.57-3.7 2.58-3.37 2.56-3.08 2.55-2.84 2.54-2.6 2.56-2.4 2.56-2.24 2.58-2.06 2.6-1.9 2.63-1.78 2.66-1.64 2.7-1.52 2.76-1.4 2.82-1.28 2.9-1.18 2.96-1.07 3.08-.96 3.18-.84 3.3-.67 3.17-1.97-.4.68-3.2.88-3.4 1-3.26 1.08-3.15 1.2-3.07 1.33-2.97 1.43-2.9 1.56-2.82 1.67-2.78 1.82-2.74 1.95-2.7 2.1-2.66 2.3-2.64 2.45-2.62 2.67-2.62 2.9-2.6 3.15-2.6 3.44-2.62 3.77-2.6 4.14-2.64 4.57-2.64 5.07-2.65 5.66-2.66 6.35-2.66 7.17-2.65 8.14-2.64 9.33-2.6 10.78-2.5 12.57-2.4 14.82-2.18 17.68-1.85 21.45-1.33 25.57-.52z" fill="#0c7cba"/><path d="M536.42 221l-1 .02-.05-2 1.05-.02zM350.23 306.5l-5.93 13.77-3.3-14.63z" fill="#0c7cba"/><path d="M351.7 305.63L344 323.5l-4.27-18.98zm-7.1 11.42l4.17-9.7-6.5-.6z" fill="#0c7cba"/><defs><path d="M232-93c-1 65-40 97-104 97C67 4 28-28 28-90v-158h33c8 89-33 224 67 224 102 0 64-133 71-224h33v155" id="j"/><path d="M135-143c-3-34-86-38-87 0 15 53 115 12 119 90S17 21 10-45l28-5c4 36 97 45 98 0-10-56-113-15-118-90-4-57 82-63 122-42 12 7 21 19 24 35" id="k"/><path d="M100-194c63 0 86 42 84 106H49c0 40 14 67 53 68 26 1 43-12 49-29l28 8c-11 28-37 45-77 45C44 4 14-33 15-96c1-61 26-98 85-98zm52 81c6-60-76-77-97-28-3 7-6 17-6 28h103" id="l"/><path d="M114-163C36-179 61-72 57 0H25l-1-190h30c1 12-1 29 2 39 6-27 23-49 58-41v29" id="m"/><g id="a"><use transform="matrix(0.05,0,0,0.05,0,0)" xlink:href="#j"/><use transform="matrix(0.05,0,0,0.05,12.950000000000001,0)" xlink:href="#k"/><use transform="matrix(0.05,0,0,0.05,21.950000000000003,0)" xlink:href="#l"/><use transform="matrix(0.05,0,0,0.05,31.950000000000003,0)" xlink:href="#m"/></g><path d="M33 0v-248h34V0H33" id="n"/><g id="b"><use transform="matrix(0.05,0,0,0.05,0,0)" xlink:href="#j"/><use transform="matrix(0.05,0,0,0.05,12.950000000000001,0)" xlink:href="#n"/></g><path d="M160-131c35 5 61 23 61 61C221 17 115-2 30 0v-248c76 3 177-17 177 60 0 33-19 50-47 57zm-97-11c50-1 110 9 110-42 0-47-63-36-110-37v79zm0 115c55-2 124 14 124-45 0-56-70-42-124-44v89" id="o"/><path d="M30 0v-248h33v221h125V0H30" id="p"/><g id="c"><use transform="matrix(0.05,0,0,0.05,0,0)" xlink:href="#o"/><use transform="matrix(0.05,0,0,0.05,12,0)" xlink:href="#p"/></g><path d="M30-248c118-7 216 8 213 122C240-48 200 0 122 0H30v-248zM63-27c89 8 146-16 146-99s-60-101-146-95v194" id="q"/><path d="M205 0l-28-72H64L36 0H1l101-248h38L239 0h-34zm-38-99l-47-123c-12 45-31 82-46 123h93" id="r"/><g id="d"><use transform="matrix(0.05,0,0,0.05,0,0)" xlink:href="#q"/><use transform="matrix(0.05,0,0,0.05,12.950000000000001,0)" xlink:href="#r"/><use transform="matrix(0.05,0,0,0.05,24.950000000000003,0)" xlink:href="#p"/></g><path d="M85-194c31 0 48 13 60 33l-1-100h32l1 261h-30c-2-10 0-23-3-31C134-8 116 4 85 4 32 4 16-35 15-94c0-66 23-100 70-100zm9 24c-40 0-46 34-46 75 0 40 6 74 45 74 42 0 51-32 51-76 0-42-9-74-50-73" id="s"/><path d="M141-36C126-15 110 5 73 4 37 3 15-17 15-53c-1-64 63-63 125-63 3-35-9-54-41-54-24 1-41 7-42 31l-33-3c5-37 33-52 76-52 45 0 72 20 72 64v82c-1 20 7 32 28 27v20c-31 9-61-2-59-35zM48-53c0 20 12 33 32 33 41-3 63-29 60-74-43 2-92-5-92 41" id="t"/><path d="M59-47c-2 24 18 29 38 22v24C64 9 27 4 27-40v-127H5v-23h24l9-43h21v43h35v23H59v120" id="u"/><path d="M47-170H22l-4-78h33" id="v"/><g id="e"><use transform="matrix(0.05,0,0,0.05,0,0)" xlink:href="#s"/><use transform="matrix(0.05,0,0,0.05,10,0)" xlink:href="#t"/><use transform="matrix(0.05,0,0,0.05,20,0)" xlink:href="#u"/><use transform="matrix(0.05,0,0,0.05,25,0)" xlink:href="#t"/><use transform="matrix(0.05,0,0,0.05,35,0)" xlink:href="#v"/></g><g id="f"><use transform="matrix(0.05,0,0,0.05,0,0)" xlink:href="#s"/><use transform="matrix(0.05,0,0,0.05,10,0)" xlink:href="#t"/><use transform="matrix(0.05,0,0,0.05,20,0)" xlink:href="#u"/><use transform="matrix(0.05,0,0,0.05,25,0)" xlink:href="#t"/><use transform="matrix(0.05,0,0,0.05,35,0)" xlink:href="#v"/><use transform="matrix(0.05,0,0,0.05,38.4,0)" xlink:href="#v"/></g><g id="g"><use transform="matrix(0.05,0,0,0.05,0,0)" xlink:href="#s"/><use transform="matrix(0.05,0,0,0.05,10,0)" xlink:href="#t"/><use transform="matrix(0.05,0,0,0.05,20,0)" xlink:href="#u"/><use transform="matrix(0.05,0,0,0.05,25,0)" xlink:href="#t"/></g><path fill="#0c7cba" d="M71-170c30-3 17 26 14 49-6 43-10 103 0 146 3 11-11 17-21 13-24-48-9-144 0-199 1-5 4-8 7-9zm-48-51c70 34 228 13 197 101-26 25-75 41-110 58-11 6-21-5-19-16 23-22 63-29 89-47 27-11 12-29-10-34-49-12-110-17-156-34-15-6-5-30 9-28" id="w"/><path fill="#0c7cba" d="M169-95c50-11-25 95 59 70 14-8 38-18 36 7-19 31-108 39-104-15C141 9 39 51 35-33c-1-31 0-85 33-71C78-83 35-9 90-11c35-13 59-46 72-78 1-3 4-5 7-6" id="x"/><path fill="#0c7cba" d="M55-217c19-19 31 6 21 21-5 37-13 73-14 114 20-21 58-35 98-32 46 19 6 83-13 101-20 20-40 39-70 47-10-1-13-19-4-25 36-21 66-42 80-84 3-9-6-14-18-12-34 8-75 16-71 63 1 8-6 13-12 14-39-31-9-155 3-207" id="y"/><path fill="#0c7cba" d="M67-53c27-27 48-65 46-120-1-26-10-27-23-8-19 29-37 83-23 128zm12 26c32 24 81-10 115-10 19 17-8 29-27 34s-41 13-63 13C-9 10 35-189 92-223c37-22 51 21 48 65-5 59-29 100-61 131" id="z"/><path fill="#0c7cba" d="M72-15c36 10 81-45 104-9-10 25-56 25-84 36-58 23-64-48-48-93-8-15 20-38 33-20 0 21-27 62-5 86zm21-174c12 0 21 8 21 21 0 12-9 21-23 21-11 0-20-10-20-22 0-10 10-21 22-20" id="A"/><path fill="#0c7cba" d="M58-31c27 44 114-3 149-13 10 1 15 19 3 25-31 15-74 31-122 32-34 0-59-9-61-39 13-47 45-88 103-88 9 0 16 6 16 14 0 14-19 20-33 14-25 9-49 27-55 55" id="B"/><g id="h"><use transform="matrix(0.06172839506172839,0,0,0.06172839506172839,0,0)" xlink:href="#w"/><use transform="matrix(0.06172839506172839,0,0,0.06172839506172839,13.08641975308642,0)" xlink:href="#x"/><use transform="matrix(0.06172839506172839,0,0,0.06172839506172839,28.148148148148145,0)" xlink:href="#y"/><use transform="matrix(0.06172839506172839,0,0,0.06172839506172839,40.123456790123456,0)" xlink:href="#z"/><use transform="matrix(0.06172839506172839,0,0,0.06172839506172839,49.5679012345679,0)" xlink:href="#A"/><use transform="matrix(0.06172839506172839,0,0,0.06172839506172839,58.456790123456784,0)" xlink:href="#B"/></g><path fill="#0c7cba" d="M188-72c-16-37-29-82-45-120-24 44-47 99-70 146zm28-7c21-13 45 14 16 23-13 14 24 40 25 61 1 8-9 11-16 11-23-11-30-44-43-65L59-17 45 10c3 19-29 26-31 7C16 7 21-2 26-9 15-7 4-12 7-24c4-12 21-10 32-15l91-185c-2-14 22-18 27-5" id="C"/><path fill="#0c7cba" d="M103-202c29 6 79-12 83 13-3 25-49 11-78 13l-8 159c22 3 63-11 63 12S121 4 96 9c-2 7-18 9-20 0-21-1-57 9-57-13 0-20 34-11 55-13l6-159c-25-4-60 15-66-11 4-28 57-7 79-21 5 0 9 2 10 6" id="D"/><g id="i"><use transform="matrix(0.06172839506172839,0,0,0.06172839506172839,0,0)" xlink:href="#C"/><use transform="matrix(0.06172839506172839,0,0,0.06172839506172839,15.555555555555555,0)" xlink:href="#w"/><use transform="matrix(0.06172839506172839,0,0,0.06172839506172839,28.641975308641975,0)" xlink:href="#D"/></g></defs></g></svg>