<svg xmlns="http://www.w3.org/2000/svg" xmlns:xlink="http://www.w3.org/1999/xlink" xmlns:lucid="lucid" width="1019" height="440"><g transform="translate(-301 -80)" lucid:page-tab-id="0_0"><path d="M385 335c0 8.28-6.72 15-15 15-8.28 0-15-6.72-15-15 0-8.28 6.72-15 15-15 8.28 0 15 6.72 15 15z" stroke="#000" stroke-width="2" fill="#c1e4f7"/><path d="M340 320h60v138h-60z" fill="none"/><path d="M370 350v52.8l30 55.2m-30-55.2L340 458m0-93h60" stroke="#000" stroke-width="2" fill="none"/><use xlink:href="#a" transform="matrix(1,0,0,1,260,458) translate(91.05 14.6)"/><path d="M660 355c0-19.33 15.67-35 35-35h190c19.33 0 35 15.67 35 35v90c0 19.33-15.67 35-35 35H695c-19.33 0-35-15.67-35-35z" stroke="#000" stroke-width="2" fill="#ffeca9"/><use xlink:href="#b" transform="matrix(1,0,0,1,665,325) translate(95.025 78.60000000000001)"/><path d="M1280 448c0 6.63-26.86 12-60 12s-60-5.37-60-12v-96c0-6.63 26.86-12 60-12s60 5.37 60 12z" stroke="#000" stroke-width="2" fill="#c1e4f7"/><path d="M1280 352c0 6.63-26.86 12-60 12s-60-5.37-60-12" stroke="#000" stroke-width="2" fill="none"/><use xlink:href="#c" transform="matrix(1,0,0,1,1165,369) translate(16.525 46.6)"/><path d="M440 120h144v102c-24.05-17.03-39.02-17.03-48.1-17.03-14.4 0-33.55 17.03-47.95 17.03-8.93 0-24.05 0-47.95-17.03z" stroke="#000" stroke-width="2" fill="#c1e4f7"/><path d="M448 129h144v102c-24.05-17.03-39.02-17.03-48.1-17.03-14.4 0-33.55 17.03-47.95 17.03-8.93 0-24.05 0-47.95-17.03z" stroke="#000" stroke-width="2" fill="#c1e4f7"/><path d="M456 138h144v102c-24.05-17.03-39.02-17.03-48.1-17.03-14.4 0-33.55 17.03-47.95 17.03-8.93 0-24.05 0-47.95-17.03z" stroke="#000" stroke-width="2" fill="#c1e4f7"/><use xlink:href="#d" transform="matrix(1,0,0,1,461,143) translate(40 41.1)"/><path d="M987 204c-14.9 0-27-10.75-27-24 0-10.6 7.3-19.55 18.66-22.83C978 126 1023 120 1041 132c9-18 54-12 54 6 27-6 54 18 36 48 18 24 0 54-36 42-9 15.6-45 15.6-54 0-18 12-54 6-54-24z" stroke="#000" stroke-width="2" fill="#c1e4f7"/><use xlink:href="#e" transform="matrix(1,0,0,1,965,125) translate(50.55 58.6)"/><path d="M854 120c8.84 0 16 26.86 16 60s-7.16 60-16 60H726c-8.84 0-16-26.86-16-60s7.16-60 16-60z" stroke="#000" stroke-width="2" fill="#c1e4f7"/><path d="M854 240c-8.84 0-16-26.86-16-60s7.16-60 16-60" stroke="#000" stroke-width="2" fill="none"/><use xlink:href="#f" transform="matrix(1,0,0,1,715,125) translate(19.599999999999994 58.6)"/><use xlink:href="#g" transform="matrix(1,0,0,1,715,125) translate(63.5 58.6)"/><path d="M520.8 236.65l124.83 97.98" stroke="#000" stroke-width="2" fill="none"/><path d="M521.42 235.88l-1.23 1.57-1.22-.95 2.04-.94z"/><path d="M657.64 344.05l-14.08-5.16 5.72-7.3z" stroke="#000" stroke-width="2"/><path d="M686.06 319.4L573.5 235.3" stroke="#000" stroke-width="2" fill="none"/><path d="M688.15 319.73l-2.58.56-.13-.1 1.2-1.6z"/><path d="M561.28 226.16l14.2 4.82-5.55 7.43z" stroke="#000" stroke-width="2"/><path d="M421 425.56h219.5M421.03 425.56H420" stroke="#000" stroke-width="2" fill="none"/><path d="M655.76 425.56l-14.26 4.63v-9.28z" stroke="#000" stroke-width="2"/><path d="M658 380H438.5" stroke="#000" stroke-width="2" fill="none"/><path d="M659 381h-1.03v-2H659z"/><path d="M423.24 380l14.26-4.64v9.28z" stroke="#000" stroke-width="2"/><path d="M921 422.78h219.5M921.03 422.78H920" stroke="#000" stroke-width="2" fill="none"/><path d="M1155.76 422.78l-14.26 4.63v-9.26z" stroke="#000" stroke-width="2"/><path d="M1158 377.22H938.5M1157.97 377.22h1.03" stroke="#000" stroke-width="2" fill="none"/><path d="M923.24 377.22l14.26-4.63v9.26z" stroke="#000" stroke-width="2"/><path d="M991.65 223.7l-85.12 83.4" stroke="#000" stroke-width="2" fill="none"/><path d="M992.2 222.82l.83.93-.7.68-1.4-1.42.82-.8z"/><path d="M895.62 317.78l6.95-13.3 6.5 6.63z" stroke="#000" stroke-width="2"/><path d="M923.1 339.3l98.5-97.87M923.1 339.28l-.72.72" stroke="#000" stroke-width="2" fill="none"/><path d="M1032.43 230.67l-6.85 13.34-6.54-6.56z" stroke="#000" stroke-width="2"/><path d="M684.75 318.4L573.5 235.3M684.73 318.4l.83.6" stroke="#000" stroke-width="2" fill="none"/><path d="M561.28 226.16l14.2 4.82-5.55 7.43z" stroke="#000" stroke-width="2"/><path d="M777.5 318v-58.5" stroke="#000" stroke-width="2" fill="none"/><path d="M778.5 319h-2v-1.03h2z"/><path d="M777.5 244.24l4.63 14.26h-9.27z" stroke="#000" stroke-width="2"/><path d="M802.8 242v58.5" stroke="#000" stroke-width="2" fill="none"/><path d="M803.8 242.03h-2V241h2z"/><path d="M802.8 315.76l-4.63-14.26h9.27z" stroke="#000" stroke-width="2"/><defs><path d="M232-93c-1 65-40 97-104 97C67 4 28-28 28-90v-158h33c8 89-33 224 67 224 102 0 64-133 71-224h33v155" id="h"/><path d="M135-143c-3-34-86-38-87 0 15 53 115 12 119 90S17 21 10-45l28-5c4 36 97 45 98 0-10-56-113-15-118-90-4-57 82-63 122-42 12 7 21 19 24 35" id="i"/><path d="M100-194c63 0 86 42 84 106H49c0 40 14 67 53 68 26 1 43-12 49-29l28 8c-11 28-37 45-77 45C44 4 14-33 15-96c1-61 26-98 85-98zm52 81c6-60-76-77-97-28-3 7-6 17-6 28h103" id="j"/><path d="M114-163C36-179 61-72 57 0H25l-1-190h30c1 12-1 29 2 39 6-27 23-49 58-41v29" id="k"/><g id="a"><use transform="matrix(0.05,0,0,0.05,0,0)" xlink:href="#h"/><use transform="matrix(0.05,0,0,0.05,12.950000000000001,0)" xlink:href="#i"/><use transform="matrix(0.05,0,0,0.05,21.950000000000003,0)" xlink:href="#j"/><use transform="matrix(0.05,0,0,0.05,31.950000000000003,0)" xlink:href="#k"/></g><path d="M185-189c-5-48-123-54-124 2 14 75 158 14 163 119 3 78-121 87-175 55-17-10-28-26-33-46l33-7c5 56 141 63 141-1 0-78-155-14-162-118-5-82 145-84 179-34 5 7 8 16 11 25" id="l"/><path d="M179-190L93 31C79 59 56 82 12 73V49c39 6 53-20 64-50L1-190h34L92-34l54-156h33" id="m"/><path d="M59-47c-2 24 18 29 38 22v24C64 9 27 4 27-40v-127H5v-23h24l9-43h21v43h35v23H59v120" id="n"/><path d="M210-169c-67 3-38 105-44 169h-31v-121c0-29-5-50-35-48C34-165 62-65 56 0H25l-1-190h30c1 10-1 24 2 32 10-44 99-50 107 0 11-21 27-35 58-36 85-2 47 119 55 194h-31v-121c0-29-5-49-35-48" id="o"/><g id="b"><use transform="matrix(0.05,0,0,0.05,0,0)" xlink:href="#l"/><use transform="matrix(0.05,0,0,0.05,12,0)" xlink:href="#m"/><use transform="matrix(0.05,0,0,0.05,21,0)" xlink:href="#i"/><use transform="matrix(0.05,0,0,0.05,30,0)" xlink:href="#n"/><use transform="matrix(0.05,0,0,0.05,35,0)" xlink:href="#j"/><use transform="matrix(0.05,0,0,0.05,45,0)" xlink:href="#o"/></g><path d="M30-248c118-7 216 8 213 122C240-48 200 0 122 0H30v-248zM63-27c89 8 146-16 146-99s-60-101-146-95v194" id="p"/><path d="M141-36C126-15 110 5 73 4 37 3 15-17 15-53c-1-64 63-63 125-63 3-35-9-54-41-54-24 1-41 7-42 31l-33-3c5-37 33-52 76-52 45 0 72 20 72 64v82c-1 20 7 32 28 27v20c-31 9-61-2-59-35zM48-53c0 20 12 33 32 33 41-3 63-29 60-74-43 2-92-5-92 41" id="q"/><path d="M115-194c53 0 69 39 70 98 0 66-23 100-70 100C84 3 66-7 56-30L54 0H23l1-261h32v101c10-23 28-34 59-34zm-8 174c40 0 45-34 45-75 0-40-5-75-45-74-42 0-51 32-51 76 0 43 10 73 51 73" id="r"/><g id="c"><use transform="matrix(0.05,0,0,0.05,0,0)" xlink:href="#p"/><use transform="matrix(0.05,0,0,0.05,12.950000000000001,0)" xlink:href="#q"/><use transform="matrix(0.05,0,0,0.05,22.950000000000003,0)" xlink:href="#n"/><use transform="matrix(0.05,0,0,0.05,27.950000000000003,0)" xlink:href="#q"/><use transform="matrix(0.05,0,0,0.05,37.95,0)" xlink:href="#r"/><use transform="matrix(0.05,0,0,0.05,47.95,0)" xlink:href="#q"/><use transform="matrix(0.05,0,0,0.05,57.95,0)" xlink:href="#i"/><use transform="matrix(0.05,0,0,0.05,66.95,0)" xlink:href="#j"/></g><path d="M140-251c81 0 123 46 123 126C263-53 228-8 163 1c7 30 30 48 69 40v23c-55 16-95-15-103-61C56-3 17-48 17-125c0-80 42-126 123-126zm0 227c63 0 89-41 89-101s-29-99-89-99c-61 0-89 39-89 99S79-25 140-24" id="s"/><path d="M84 4C-5 8 30-112 23-190h32v120c0 31 7 50 39 49 72-2 45-101 50-169h31l1 190h-30c-1-10 1-25-2-33-11 22-28 36-60 37" id="t"/><g id="d"><use transform="matrix(0.05,0,0,0.05,0,0)" xlink:href="#s"/><use transform="matrix(0.05,0,0,0.05,14,0)" xlink:href="#t"/><use transform="matrix(0.05,0,0,0.05,24,0)" xlink:href="#j"/><use transform="matrix(0.05,0,0,0.05,34,0)" xlink:href="#t"/><use transform="matrix(0.05,0,0,0.05,44,0)" xlink:href="#j"/></g><path d="M108 0H70L1-190h34L89-25l56-165h34" id="u"/><path d="M24-231v-30h32v30H24zM24 0v-190h32V0H24" id="v"/><path d="M96-169c-40 0-48 33-48 73s9 75 48 75c24 0 41-14 43-38l32 2c-6 37-31 61-74 61-59 0-76-41-82-99-10-93 101-131 147-64 4 7 5 14 7 22l-32 3c-4-21-16-35-41-35" id="w"/><g id="e"><use transform="matrix(0.05,0,0,0.05,0,0)" xlink:href="#l"/><use transform="matrix(0.05,0,0,0.05,12,0)" xlink:href="#j"/><use transform="matrix(0.05,0,0,0.05,22,0)" xlink:href="#k"/><use transform="matrix(0.05,0,0,0.05,27.950000000000003,0)" xlink:href="#u"/><use transform="matrix(0.05,0,0,0.05,36.95,0)" xlink:href="#v"/><use transform="matrix(0.05,0,0,0.05,40.900000000000006,0)" xlink:href="#w"/><use transform="matrix(0.05,0,0,0.05,49.900000000000006,0)" xlink:href="#j"/><use transform="matrix(0.05,0,0,0.05,59.900000000000006,0)" xlink:href="#i"/></g><path d="M197 0v-115H63V0H30v-248h33v105h134v-105h34V0h-34" id="x"/><path d="M85-194c31 0 48 13 60 33l-1-100h32l1 261h-30c-2-10 0-23-3-31C134-8 116 4 85 4 32 4 16-35 15-94c0-66 23-100 70-100zm9 24c-40 0-46 34-46 75 0 40 6 74 45 74 42 0 51-32 51-76 0-42-9-74-50-73" id="y"/><g id="f"><use transform="matrix(0.05,0,0,0.05,0,0)" xlink:href="#x"/><use transform="matrix(0.05,0,0,0.05,12.950000000000001,0)" xlink:href="#q"/><use transform="matrix(0.05,0,0,0.05,22.950000000000003,0)" xlink:href="#k"/><use transform="matrix(0.05,0,0,0.05,28.900000000000002,0)" xlink:href="#y"/></g><path d="M143 0L79-87 56-68V0H24v-261h32v163l83-92h37l-77 82L181 0h-38" id="z"/><g id="g"><use transform="matrix(0.05,0,0,0.05,0,0)" xlink:href="#p"/><use transform="matrix(0.05,0,0,0.05,12.950000000000001,0)" xlink:href="#v"/><use transform="matrix(0.05,0,0,0.05,16.900000000000002,0)" xlink:href="#i"/><use transform="matrix(0.05,0,0,0.05,25.900000000000002,0)" xlink:href="#z"/></g></defs></g></svg>